<mxfile host="app.diagrams.net" modified="2022-05-17T02:06:55.596Z" agent="5.0 (Windows NT 10.0; Win64; x64) AppleWebKit/537.36 (KHTML, like Gecko) Chrome/91.0.4472.77 Safari/537.36" etag="9dp3B86Oijco4xS-tz8R" version="18.0.4" type="github">
  <diagram id="oJZdndB87pB0CsKGwS7A">
    <mxGraphModel dx="1550" dy="785" grid="1" gridSize="10" guides="1" tooltips="1" connect="1" arrows="1" fold="1" page="1" pageScale="1" pageWidth="2339" pageHeight="3300" math="0" shadow="0">
      <root>
        <mxCell id="0" />
        <mxCell id="1" parent="0" />
      </root>
    </mxGraphModel>
  </diagram>
</mxfile>
